<svg width="24" height="24" viewBox="0 0 24 24" fill="none" xmlns="http://www.w3.org/2000/svg">
<path d="M11.2899 16.71C11.4773 16.8962 11.7308 17.0008 11.9949 17.0008C12.2591 17.0008 12.5126 16.8962 12.6999 16.71L20.6999 8.71C20.8638 8.5187 20.9494 8.27262 20.9397 8.02095C20.9299 7.76927 20.8256 7.53053 20.6475 7.35244C20.4694 7.17434 20.2307 7.07001 19.979 7.06029C19.7273 7.05057 19.4812 7.13617 19.2899 7.3L11.9999 14.59L4.70994 7.29C4.52164 7.1017 4.26624 6.99591 3.99994 6.99591C3.73364 6.99591 3.47824 7.1017 3.28994 7.29C3.10164 7.4783 2.99585 7.7337 2.99585 8C2.99585 8.2663 3.10164 8.5217 3.28994 8.71L11.2899 16.71Z" fill="white"/>
</svg>
