<svg xmlns="http://www.w3.org/2000/svg" xmlns:xlink="http://www.w3.org/1999/xlink" width="28" height="28" viewBox="0 0 28 28"><defs><clipPath id="a"><rect width="28" height="28" transform="translate(75 121)" fill="#fff"/></clipPath></defs><g transform="translate(-75 -121)" clip-path="url(#a)"><path d="M21.223,4.544a.061.061,0,0,0-.031-.029A19.8,19.8,0,0,0,16.307,3a.074.074,0,0,0-.079.037,13.763,13.763,0,0,0-.608,1.249,18.279,18.279,0,0,0-5.487,0,12.646,12.646,0,0,0-.618-1.249A.077.077,0,0,0,9.437,3,19.742,19.742,0,0,0,4.552,4.516a.07.07,0,0,0-.032.028A20.241,20.241,0,0,0,.974,18.2a.082.082,0,0,0,.031.056A19.9,19.9,0,0,0,7,21.282a.077.077,0,0,0,.084-.028,14.213,14.213,0,0,0,1.226-1.994.076.076,0,0,0-.015-.089.075.075,0,0,0-.027-.017,13.124,13.124,0,0,1-1.872-.892.077.077,0,0,1-.038-.062.077.077,0,0,1,.03-.066c.126-.094.252-.192.372-.291a.074.074,0,0,1,.078-.01,14.2,14.2,0,0,0,12.061,0,.074.074,0,0,1,.079.01c.12.1.246.2.373.292a.077.077,0,0,1,.02.1.078.078,0,0,1-.026.026,12.309,12.309,0,0,1-1.873.891.078.078,0,0,0-.027.017.077.077,0,0,0-.022.058.077.077,0,0,0,.008.031,15.956,15.956,0,0,0,1.225,1.992.076.076,0,0,0,.084.029,19.838,19.838,0,0,0,6-3.028.075.075,0,0,0,.022-.024.077.077,0,0,0,.01-.031A20.107,20.107,0,0,0,21.223,4.544ZM8.9,15.473a2.306,2.306,0,0,1-2.157-2.418A2.294,2.294,0,0,1,8.9,10.637a2.281,2.281,0,0,1,2.157,2.418A2.294,2.294,0,0,1,8.9,15.473Zm7.975,0a2.306,2.306,0,0,1-2.157-2.418,2.294,2.294,0,0,1,2.157-2.418,2.281,2.281,0,0,1,2.157,2.418A2.287,2.287,0,0,1,16.87,15.473Z" transform="translate(76.125 123)" fill="#fff"/></g></svg>