<svg xmlns="http://www.w3.org/2000/svg" xmlns:xlink="http://www.w3.org/1999/xlink" width="28" height="28" viewBox="0 0 28 28"><defs><clipPath id="a"><rect width="28" height="28" transform="translate(383 121)" fill="#fff"/></clipPath></defs><g transform="translate(-383 -121)" clip-path="url(#a)"><g transform="translate(384.598 122.598)"><path d="M15.354,12.142v-.03c-.006.01-.014.02-.02.03Z" transform="translate(-2.224 -1.744)" fill="#fff"/><path d="M12.4.4a12,12,0,1,0,12,12A12,12,0,0,0,12.4.4ZM9.1,17.069H6.5V9.263H9.1ZM7.8,8.2H7.783a1.353,1.353,0,1,1,.034-2.7A1.353,1.353,0,1,1,7.8,8.2Zm10.655,8.871H15.861V12.893c0-1.049-.376-1.765-1.315-1.765a1.421,1.421,0,0,0-1.332.949,1.777,1.777,0,0,0-.086.633v4.36h-2.6s.035-7.074,0-7.806h2.6V10.37a2.577,2.577,0,0,1,2.339-1.29c1.708,0,2.988,1.115,2.988,3.513v4.476Z" fill="#f1f1f1"/></g></g></svg>