<svg width="13" height="13" viewBox="0 0 13 13" fill="none" xmlns="http://www.w3.org/2000/svg">
<path d="M10.1669 5.58303V10.854C10.1669 11.0045 10.1373 11.1535 10.0797 11.2925C10.0221 11.4315 9.93773 11.5579 9.83132 11.6643C9.72492 11.7707 9.5986 11.8551 9.45958 11.9127C9.32055 11.9702 9.17155 11.9999 9.02107 11.9999H2.14587C1.84196 11.9999 1.55051 11.8792 1.33562 11.6643C1.12072 11.4494 1 11.1579 1 10.854V3.97881C1 3.67491 1.12072 3.38346 1.33562 3.16856C1.55051 2.95367 1.84196 2.83295 2.14587 2.83295H6.94361" stroke="white" stroke-linecap="round" stroke-linejoin="round"/>
<path d="M8.79187 1H12.0003V4.20843" stroke="white" stroke-linecap="round" stroke-linejoin="round"/>
<path d="M5.5835 7.4173L11.7712 1.22961" stroke="white" stroke-linecap="round" stroke-linejoin="round"/>
</svg>
