<svg xmlns="http://www.w3.org/2000/svg" xmlns:xlink="http://www.w3.org/1999/xlink" width="28" height="28" viewBox="0 0 28 28"><defs><clipPath id="a"><rect width="28" height="28" transform="translate(137 121)" fill="#fff"/></clipPath></defs><g transform="translate(-137 -121)" clip-path="url(#a)"><path d="M10.272,0a10.254,10.254,0,0,0-3.24,19.982c.513.094.674-.21.674-.482,0-.244.005-.924,0-1.78-2.852.62-3.442-1.351-3.442-1.351a2.715,2.715,0,0,0-1.138-1.5c-.931-.636.07-.624.07-.624A2.155,2.155,0,0,1,4.767,15.3a2.184,2.184,0,0,0,2.983.852A2.194,2.194,0,0,1,8.4,14.784c-2.277-.259-4.67-1.138-4.67-5.067A3.962,3.962,0,0,1,4.787,6.966a3.681,3.681,0,0,1,.1-2.714S5.749,3.976,7.707,5.3a9.727,9.727,0,0,1,5.134,0c1.958-1.327,2.818-1.052,2.818-1.052a3.687,3.687,0,0,1,.1,2.714,3.961,3.961,0,0,1,1.054,2.751c0,3.939-2.4,4.806-4.681,5.059a2.425,2.425,0,0,1,.7,1.889V19.5c0,.274.165.577.686.478A10.255,10.255,0,0,0,10.272,0Z" transform="translate(140.979 125)" fill="#fff" fill-rule="evenodd"/></g></svg>