<svg xmlns="http://www.w3.org/2000/svg" xmlns:xlink="http://www.w3.org/1999/xlink" width="28" height="28" viewBox="0 0 28 28"><defs><clipPath id="a"><rect width="28" height="28" transform="translate(383 121)" fill="#fff"/></clipPath></defs><g transform="translate(-383 -121)" clip-path="url(#a)"><path d="M23.5,2.623A3.005,3.005,0,0,0,21.377.5C19.5,0,12,0,12,0S4.495,0,2.623.5A3.006,3.006,0,0,0,.5,2.623,31.239,31.239,0,0,0,0,8.4a31.236,31.236,0,0,0,.5,5.777A3.006,3.006,0,0,0,2.623,16.3c1.872.5,9.377.5,9.377.5s7.5,0,9.377-.5A3.005,3.005,0,0,0,23.5,14.177,31.237,31.237,0,0,0,24,8.4,31.24,31.24,0,0,0,23.5,2.623ZM9.6,12V4.8l6.235,3.6Z" transform="translate(385 127)" fill="#fff"/></g></svg>